<?xml version="1.0" encoding="UTF-8" standalone="no"?>
<!DOCTYPE svg PUBLIC "-//W3C//DTD SVG 1.1//EN" "http://www.w3.org/Graphics/SVG/1.1/DTD/svg11.dtd">
<svg width="100%" height="100%" viewBox="0 0 116 150" version="1.1" xmlns="http://www.w3.org/2000/svg" xmlns:xlink="http://www.w3.org/1999/xlink" xml:space="preserve" xmlns:serif="http://www.serif.com/" style="fill-rule:evenodd;clip-rule:evenodd;stroke-linecap:round;stroke-linejoin:round;stroke-miterlimit:1.5;">
    <g transform="matrix(1,0,0,1,-288.15,-223.15)">
        <g transform="matrix(1,0,0,1,68,118)">
            <g transform="matrix(1,0,0,0.782123,0,23.9665)">
                <path d="M330.75,110C286.183,110 250,150.104 250,199.5C250,248.896 286.183,289 330.75,289C286.183,289 250,248.896 250,199.5C250,150.104 286.183,110 330.75,110Z" style="fill:rgb(172,22,22);stroke:rgb(255,233,43);stroke-width:10.81px;"/>
            </g>
            <g transform="matrix(2.65018,0,0,1.19412,-450.795,-49.4417)">
                <path d="M255,204.286L290.375,204.286" style="fill:none;stroke:rgb(255,233,43);stroke-width:4.72px;"/>
            </g>
            <g transform="matrix(2.65018,0,0,1.19412,-450.795,-78.4417)">
                <path d="M255,204.286L290.375,204.286" style="fill:none;stroke:rgb(255,233,43);stroke-width:4.72px;"/>
            </g>
        </g>
    </g>
</svg>
